<?xml version="1.0" encoding="utf-8"?>
<!-- Generator: Adobe Illustrator 21.0.0, SVG Export Plug-In . SVG Version: 6.00 Build 0)  -->
<svg version="1.1" xmlns="http://www.w3.org/2000/svg" xmlns:xlink="http://www.w3.org/1999/xlink" x="0px" y="0px"
	 viewBox="0 0 128 128" style="enable-background:new 0 0 128 128;" xml:space="preserve">
<style type="text/css">
	.st0{fill:none;stroke:#355C94;stroke-width:3;stroke-miterlimit:10;}
	.st1{fill:#355C94;}
	.st2{fill:#FFFFFF;}
	.st3{fill:#E93F38;}
	.st4{fill:#022895;}
	.st5{fill:#4E9B4B;}
	.st6{fill:#CD362D;}
	.st7{fill:#428542;}
	.st8{fill:#FEE833;}
	.st9{fill:#355C94;stroke:#FFFFFF;stroke-miterlimit:10;}
	.st10{fill:#355C94;stroke:#FFFFFF;stroke-width:3;stroke-miterlimit:10;}
</style>
<g id="Layer_2">
</g>
<g id="Layer_4">
</g>
<g id="Layer_3">
	<path class="st1" d="M125.5,126.5H2.5c-0.8,0-1.5-0.7-1.5-1.5l0,0c0-0.8,0.7-1.5,1.5-1.5h123c0.8,0,1.5,0.7,1.5,1.5l0,0
		C127,125.8,126.3,126.5,125.5,126.5z"/>
	<path class="st1" d="M50.5,106h-27c-0.8,0-1.5-0.7-1.5-1.5v0c0-0.8,0.7-1.5,1.5-1.5h27c0.8,0,1.5,0.7,1.5,1.5v0
		C52,105.3,51.3,106,50.5,106z"/>
	<path class="st1" d="M102,52.2V23.5c0-0.8,0.7-1.5,1.5-1.5l0,0c0.8,0,1.5,0.7,1.5,1.5v28.7c0,0.8-0.7,1.5-1.5,1.5l0,0
		C102.7,53.7,102,53,102,52.2z"/>
	<path class="st1" d="M58.9,124.4l-9.5-18.7c-0.4-0.7-0.1-1.6,0.7-2h0c0.7-0.4,1.6-0.1,2,0.7l9.5,18.7c0.4,0.7,0.1,1.6-0.7,2v0
		C60.1,125.4,59.2,125.1,58.9,124.4z"/>
	<path class="st1" d="M15.1,124.4l9.5-18.7c0.4-0.7,0.1-1.6-0.7-2h0c-0.7-0.4-1.6-0.1-2,0.7l-9.5,18.7c-0.4,0.7-0.1,1.6,0.7,2l0,0
		C13.8,125.4,14.7,125.1,15.1,124.4z"/>
	<path class="st1" d="M30.6,46.4l12-10.5c0.6-0.5,0.7-1.5,0.1-2.1l0,0c-0.5-0.6-1.5-0.7-2.1-0.1l-12,10.5c-0.6,0.5-0.7,1.5-0.1,2.1
		l0,0C29,46.9,30,47,30.6,46.4z"/>
	<path class="st1" d="M30.6,90.4l12-10.5c0.6-0.5,0.7-1.5,0.1-2.1h0c-0.5-0.6-1.5-0.7-2.1-0.1l-12,10.5c-0.6,0.5-0.7,1.5-0.1,2.1h0
		C29,90.9,30,91,30.6,90.4z"/>
	<path class="st1" d="M29.6,68.4l12-10.5c0.6-0.5,0.7-1.5,0.1-2.1l0,0c-0.5-0.6-1.5-0.7-2.1-0.1l-12,10.5c-0.6,0.5-0.7,1.5-0.1,2.1
		h0C28,68.9,29,69,29.6,68.4z"/>
	<path class="st1" d="M29.2,47.1l10.5,12c0.5,0.6,1.5,0.7,2.1,0.1l0,0c0.6-0.5,0.7-1.5,0.1-2.1l-10.5-12c-0.5-0.6-1.5-0.7-2.1-0.1h0
		C28.7,45.5,28.6,46.4,29.2,47.1z"/>
	<path class="st1" d="M29.2,92.1l10.5,12c0.5,0.6,1.5,0.7,2.1,0.1h0c0.6-0.5,0.7-1.5,0.1-2.1l-10.5-12c-0.5-0.6-1.5-0.7-2.1-0.1h0
		C28.7,90.5,28.6,91.4,29.2,92.1z"/>
	<path class="st1" d="M29.2,68.1l10.5,12c0.5,0.6,1.5,0.7,2.1,0.1h0c0.6-0.5,0.7-1.5,0.1-2.1l-10.5-12c-0.5-0.6-1.5-0.7-2.1-0.1h0
		C28.7,66.5,28.6,67.4,29.2,68.1z"/>
	<path class="st0" d="M41.1,103H28.9c-0.5,0-0.9-0.5-0.9-1.2V6.2c0-1.2,1.1-1.7,1.7-0.7l11.5,21.7c0.6,1.1,0.9,2.4,0.9,3.7v70.9
		C42,102.5,41.6,103,41.1,103z"/>
	<path class="st0" d="M107,19.8V22c0,0.3-0.3,0.5-0.6,0.5H4.2c-0.6,0-0.8-0.7-0.3-1L28.5,5.4c0.9-0.6,2-0.9,3-0.9c0,0,0.1,0,0.1,0
		l71.8,11.4C105.5,16.3,107,17.9,107,19.8z"/>
	<path class="st1" d="M101.4,52.8L84.8,75.8c-1,1.3,0,3.2,1.6,3.2h33.2c1.6,0,2.6-1.8,1.6-3.2l-16.6-23.1
		C103.8,51.6,102.2,51.6,101.4,52.8z"/>
	<path class="st0" d="M119.5,124.5h-33v-25c0-1.1,0.9-2,2-2h29c1.1,0,2,0.9,2,2V124.5z"/>
	<path class="st1" d="M109.2,118.5H98c-1.1,0-2-0.9-2-2v-8.4c0-1.1,0.9-2,2-2h11.2c1.1,0,2,0.9,2,2v8.4
		C111.2,117.6,110.3,118.5,109.2,118.5z"/>
</g>
<g id="Layer_1">
</g>
</svg>
