<?xml version="1.0" encoding="utf-8"?>
<!-- Generator: Adobe Illustrator 21.0.0, SVG Export Plug-In . SVG Version: 6.00 Build 0)  -->
<svg version="1.1" xmlns="http://www.w3.org/2000/svg" xmlns:xlink="http://www.w3.org/1999/xlink" x="0px" y="0px"
	 viewBox="0 0 128 128" style="enable-background:new 0 0 128 128;" xml:space="preserve">
<style type="text/css">
	.st0{fill:none;stroke:#355C94;stroke-width:3;stroke-miterlimit:10;}
	.st1{fill:#355C94;}
	.st2{fill:#FFFFFF;}
	.st3{fill:#E93F38;}
	.st4{fill:#022895;}
	.st5{fill:#4E9B4B;}
	.st6{fill:#CD362D;}
	.st7{fill:#428542;}
	.st8{fill:#FEE833;}
</style>
<g id="Layer_2">
</g>
<g id="Layer_4">
</g>
<g id="Layer_3">
</g>
<g id="Layer_1">
	<g id="education">
		<path class="st1" d="M102,69.2v30.3c0,2.8-1.7,4-4.2,5c0,0-15.8,8-32.3,8c-19.9,0-32.3-8-32.3-8c-2.5-1-4.2-2.2-4.2-5v-29L61.3,84
			c1.8,0.7,3.7,0.7,5.5,0L102,69.2z"/>
		<path class="st1" d="M123.1,57.3L66.8,81c-1.8,0.7-3.7,0.7-5.5,0L4.9,57.3c-3.8-1.6-3.9-7-0.1-8.7l56.3-24.8
			c1.8-0.8,3.9-0.8,5.7,0l56.3,24.8C127,50.3,127,55.7,123.1,57.3z"/>
		<path class="st1" d="M26,97c0,0-2,1-5,1s-5-1-5-1l4.5-33.5L24,65L26,97z"/>
	</g>
</g>
</svg>
