<?xml version="1.0" encoding="utf-8"?>
<!-- Generator: Adobe Illustrator 21.0.0, SVG Export Plug-In . SVG Version: 6.00 Build 0)  -->
<svg version="1.1" xmlns="http://www.w3.org/2000/svg" xmlns:xlink="http://www.w3.org/1999/xlink" x="0px" y="0px"
	 viewBox="0 0 128 128" style="enable-background:new 0 0 128 128;" xml:space="preserve">
<style type="text/css">
	.st0{fill:none;stroke:#355C94;stroke-width:3;stroke-miterlimit:10;}
	.st1{fill:#355C94;}
	.st2{fill:#FFFFFF;}
	.st3{fill:#E93F38;}
	.st4{fill:#022895;}
	.st5{fill:#4E9B4B;}
	.st6{fill:#CD362D;}
	.st7{fill:#428542;}
	.st8{fill:#FEE833;}
	.st9{fill:#355C94;stroke:#FFFFFF;stroke-miterlimit:10;}
	.st10{fill:#355C94;stroke:#FFFFFF;stroke-width:3;stroke-miterlimit:10;}
</style>
<g id="Layer_2">
</g>
<g id="Layer_4">
</g>
<g id="Layer_3">
	<path class="st1" d="M19.2,123.5V23.9c0-0.8,0.7-1.5,1.5-1.5h0c0.8,0,1.5,0.7,1.5,1.5v99.6c0,0.8-0.7,1.5-1.5,1.5h0
		C19.9,125,19.2,124.3,19.2,123.5z"/>
	<path class="st1" d="M105.2,123.5V23.9c0-0.8,0.7-1.5,1.5-1.5l0,0c0.8,0,1.5,0.7,1.5,1.5v99.6c0,0.8-0.7,1.5-1.5,1.5l0,0
		C105.9,125,105.2,124.3,105.2,123.5z"/>
	<path class="st0" d="M120.5,125H8.5c-2.8,0-5-2.2-5-5V28.5c0-2.8,2.2-5,5-5h112c2.8,0,5,2.2,5,5V120
		C125.5,122.8,123.3,125,120.5,125z"/>
	<path class="st1" d="M35,72.4v-1.9c0-2.8,2.2-5,5-5h48.1c2.8,0,5,2.2,5,5v1.9c0,2.8-2.2,5-5,5H40C37.2,77.4,35,75.1,35,72.4z"/>
	<path class="st1" d="M63.4,44.3h1.9c2.8,0,5,2.2,5,5v48.1c0,2.8-2.2,5-5,5h-1.9c-2.8,0-5-2.2-5-5V49.3
		C58.4,46.5,60.6,44.3,63.4,44.3z"/>
	<path class="st0" d="M93.5,23.5h-59v-19c0-1.1,0.9-2,2-2h55c1.1,0,2,0.9,2,2V23.5z"/>
</g>
<g id="Layer_1">
</g>
</svg>
